ffmpeg started on 2026-01-19 at 14:40:53
Report written to "D:\Convert\FFMetrics\reports\psnr_report-6.txt"
Log level: 32
Command line:
ffmpeg -hide_banner -nostdin -r 24000/1001 -i "F:\\Convert\\files\\[DC] Make Heroine ga Oosugiru - 07_Telegram_HEVC(181).mkv" -r 24000/1001 -i "F:\\Convert\\files\\[DC] Make Heroine ga Oosugiru - 07_Telegram.mp4" -lavfi "[0:v]settb=AVTB,setpts=PTS-STARTPTS,format=pix_fmts=yuv420p10le,fps=24000/1001,scale=1920:1080:flags=lanczos:param0=3:out_range=limited:out_color_matrix=bt709:out_chroma_loc=left,setsar=1/1,setdar=(1920/1080)*(1/1),colorspace=format=yuv420p10:range=tv:primaries=bt709:trc=bt709:space=bt709:fast=0[main];[1:v]settb=AVTB,setpts=PTS-STARTPTS,format=pix_fmts=yuv420p,fps=24000/1001,scale=1920:1080:flags=lanczos:param0=3:out_range=limited:out_color_matrix=bt709:out_chroma_loc=left,setsar=1.000,setdar=1.778,colorspace=format=yuv420p:range=tv:primaries=bt709:trc=bt709:space=bt709:fast=0[ref];[main][ref]psnr=eof_action=endall:stats_file='D\\:/Convert/FFMetrics/logs/psnr_logfile-6.txt'" -f null -
Input #0, matroska,webm, from 'F:\Convert\files\[DC] Make Heroine ga Oosugiru - 07_Telegram_HEVC(181).mkv':
  Metadata:
    COMPATIBLE_BRANDS: isomiso2avc1mp41
    MAJOR_BRAND     : isom
    MINOR_VERSION   : 512
    ENCODER         : Lavf61.7.100
  Duration: 00:24:06.79, start: -0.021000, bitrate: 933 kb/s
  Stream #0:0: Video: hevc (Main 10), yuv420p10le(tv, bt709, progressive), 1920x1080 [SAR 1:1 DAR 16:9], 23.98 fps, 23.98 tbr, 1k tbn (default)
      Metadata:
        HANDLER_NAME    : VideoHandler
        VENDOR_ID       : [0][0][0][0]
        ENCODER         : Lavc61.19.100 libx265
        BPS             : 736748
        DURATION        : 00:24:06.569708333
        NUMBER_OF_FRAMES: 34683
        NUMBER_OF_BYTES : 133219726
        _STATISTICS_WRITING_APP: mkvpropedit v94.0 ('Initiate') 64-bit
        _STATISTICS_WRITING_DATE_UTC: 2026-01-19 09:46:11
        _STATISTICS_TAGS: BPS DURATION NUMBER_OF_FRAMES NUMBER_OF_BYTES
  Stream #0:1: Audio: aac (LC), 48000 Hz, stereo, fltp (default)
      Metadata:
        HANDLER_NAME    : SoundHandler
        VENDOR_ID       : [0][0][0][0]
        ENCODER         : Lavc61.19.100 aac
        BPS             : 193194
        DURATION        : 00:24:06.784000000
        NUMBER_OF_FRAMES: 67819
        NUMBER_OF_BYTES : 34938755
        _STATISTICS_WRITING_APP: mkvpropedit v94.0 ('Initiate') 64-bit
        _STATISTICS_WRITING_DATE_UTC: 2026-01-19 09:46:11
        _STATISTICS_TAGS: BPS DURATION NUMBER_OF_FRAMES NUMBER_OF_BYTES
Input #1, mov,mp4,m4a,3gp,3g2,mj2, from 'F:\Convert\files\[DC] Make Heroine ga Oosugiru - 07_Telegram.mp4':
  Metadata:
    major_brand     : isom
    minor_version   : 512
    compatible_brands: isomiso2avc1mp41
    encoder         : Lavf60.16.100
  Duration: 00:24:06.74, start: 0.000000, bitrate: 3764 kb/s
  Stream #1:0[0x1](und): Video: h264 (High) (avc1 / 0x31637661), yuv420p(tv, bt709, progressive), 1920x1080 [SAR 1:1 DAR 16:9], 3616 kb/s, 23.98 fps, 23.98 tbr, 24k tbn (default)
      Metadata:
        handler_name    : VideoHandler
        vendor_id       : [0][0][0][0]
        encoder         : Lavc60.31.102 h264_qsv
  Stream #1:1[0x2](und): Audio: aac (HE-AACv2) (mp4a / 0x6134706D), 48000 Hz, stereo, fltp, 144 kb/s (default)
      Metadata:
        handler_name    : SoundHandler
        vendor_id       : [0][0][0][0]
Stream mapping:
  Stream #0:0 (hevc) -> settb:default
  Stream #1:0 (h264) -> settb:default
  psnr:default -> Stream #0:0 (wrapped_avframe)
  Stream #0:1 -> #0:1 (aac (native) -> pcm_s16le (native))
Output #0, null, to 'pipe:':
  Metadata:
    COMPATIBLE_BRANDS: isomiso2avc1mp41
    MAJOR_BRAND     : isom
    MINOR_VERSION   : 512
    encoder         : Lavf61.7.100
  Stream #0:0: Video: wrapped_avframe, yuv420p10le(tv, bt709, progressive), 1920x1080 [SAR 1:1 DAR 16:9], q=2-31, 200 kb/s, 23.98 fps, 23.98 tbn
      Metadata:
        encoder         : Lavc61.19.100 wrapped_avframe
  Stream #0:1: Audio: pcm_s16le, 48000 Hz, stereo, s16, 1536 kb/s (default)
      Metadata:
        HANDLER_NAME    : SoundHandler
        VENDOR_ID       : [0][0][0][0]
        _STATISTICS_TAGS: BPS DURATION NUMBER_OF_FRAMES NUMBER_OF_BYTES
        BPS             : 193194
        DURATION        : 00:24:06.784000000
        NUMBER_OF_FRAMES: 67819
        NUMBER_OF_BYTES : 34938755
        _STATISTICS_WRITING_APP: mkvpropedit v94.0 ('Initiate') 64-bit
        _STATISTICS_WRITING_DATE_UTC: 2026-01-19 09:46:11
        encoder         : Lavc61.19.100 pcm_s16le
frame=  142 fps=0.0 q=-0.0 size=N/A time=00:00:05.92 bitrate=N/A speed=11.4x    frame=  335 fps=324 q=-0.0 size=N/A time=00:00:13.97 bitrate=N/A speed=13.5x    frame=  536 fps=347 q=-0.0 size=N/A time=00:00:22.35 bitrate=N/A speed=14.5x    frame=  746 fps=360 q=-0.0 size=N/A time=00:00:31.11 bitrate=N/A speed=  15x    frame=  919 fps=356 q=-0.0 size=N/A time=00:00:38.32 bitrate=N/A speed=14.9x    frame= 1068 fps=346 q=-0.0 size=N/A time=00:00:44.54 bitrate=N/A speed=14.4x    frame= 1229 fps=340 q=-0.0 size=N/A time=00:00:51.25 bitrate=N/A speed=14.2x    frame= 1399 fps=339 q=-0.0 size=N/A time=00:00:58.34 bitrate=N/A speed=14.1x    frame= 1542 fps=332 q=-0.0 size=N/A time=00:01:04.31 bitrate=N/A speed=13.9x    frame= 1689 fps=328 q=-0.0 size=N/A time=00:01:10.44 bitrate=N/A speed=13.7x    frame= 1862 fps=328 q=-0.0 size=N/A time=00:01:17.66 bitrate=N/A speed=13.7x    frame= 2032 fps=328 q=-0.0 size=N/A time=00:01:24.75 bitrate=N/A speed=13.7x    frame= 2138 fps=319 q=-0.0 size=N/A time=00:01:29.17 bitrate=N/A speed=13.3x    frame= 2301 fps=319 q=-0.0 size=N/A time=00:01:35.97 bitrate=N/A speed=13.3x    frame= 2445 fps=316 q=-0.0 size=N/A time=00:01:41.97 bitrate=N/A speed=13.2x    frame= 2582 fps=313 q=-0.0 size=N/A time=00:01:47.69 bitrate=N/A speed=  13x    frame= 2764 fps=315 q=-0.0 size=N/A time=00:01:55.28 bitrate=N/A speed=13.1x    frame= 2937 fps=316 q=-0.0 size=N/A time=00:02:02.49 bitrate=N/A speed=13.2x    frame= 3137 fps=319 q=-0.0 size=N/A time=00:02:10.83 bitrate=N/A speed=13.3x    frame= 3340 fps=323 q=-0.0 size=N/A time=00:02:19.30 bitrate=N/A speed=13.5x    frame= 3547 fps=327 q=-0.0 size=N/A time=00:02:27.93 bitrate=N/A speed=13.6x    frame= 3757 fps=330 q=-0.0 size=N/A time=00:02:36.69 bitrate=N/A speed=13.8x    frame= 3964 fps=334 q=-0.0 size=N/A time=00:02:45.33 bitrate=N/A speed=13.9x    frame= 4166 fps=336 q=-0.0 size=N/A time=00:02:53.75 bitrate=N/A speed=  14x    frame= 4370 fps=339 q=-0.0 size=N/A time=00:03:02.26 bitrate=N/A speed=14.1x    frame= 4570 fps=340 q=-0.0 size=N/A time=00:03:10.60 bitrate=N/A speed=14.2x    frame= 4769 fps=342 q=-0.0 size=N/A time=00:03:18.90 bitrate=N/A speed=14.3x    frame= 4966 fps=344 q=-0.0 size=N/A time=00:03:27.12 bitrate=N/A speed=14.3x    frame= 5170 fps=345 q=-0.0 size=N/A time=00:03:35.63 bitrate=N/A speed=14.4x    frame= 5367 fps=347 q=-0.0 size=N/A time=00:03:43.84 bitrate=N/A speed=14.5x    frame= 5567 fps=348 q=-0.0 size=N/A time=00:03:52.19 bitrate=N/A speed=14.5x    frame= 5762 fps=349 q=-0.0 size=N/A time=00:04:00.32 bitrate=N/A speed=14.5x    frame= 5962 fps=350 q=-0.0 size=N/A time=00:04:08.66 bitrate=N/A speed=14.6x    frame= 6168 fps=351 q=-0.0 size=N/A time=00:04:17.25 bitrate=N/A speed=14.7x    frame= 6362 fps=352 q=-0.0 size=N/A time=00:04:25.34 bitrate=N/A speed=14.7x    frame= 6567 fps=354 q=-0.0 size=N/A time=00:04:33.89 bitrate=N/A speed=14.7x    frame= 6775 fps=355 q=-0.0 size=N/A time=00:04:42.57 bitrate=N/A speed=14.8x    frame= 6983 fps=356 q=-0.0 size=N/A time=00:04:51.24 bitrate=N/A speed=14.8x    frame= 7167 fps=356 q=-0.0 size=N/A time=00:04:58.92 bitrate=N/A speed=14.8x    frame= 7365 fps=356 q=-0.0 size=N/A time=00:05:07.18 bitrate=N/A speed=14.9x    frame= 7556 fps=357 q=-0.0 size=N/A time=00:05:15.14 bitrate=N/A speed=14.9x    frame= 7736 fps=357 q=-0.0 size=N/A time=00:05:22.65 bitrate=N/A speed=14.9x    frame= 7941 fps=358 q=-0.0 size=N/A time=00:05:31.20 bitrate=N/A speed=14.9x    frame= 8141 fps=358 q=-0.0 size=N/A time=00:05:39.54 bitrate=N/A speed=14.9x    frame= 8336 fps=359 q=-0.0 size=N/A time=00:05:47.68 bitrate=N/A speed=  15x    frame= 8538 fps=360 q=-0.0 size=N/A time=00:05:56.10 bitrate=N/A speed=  15x    frame= 8730 fps=360 q=-0.0 size=N/A time=00:06:04.11 bitrate=N/A speed=  15x    frame= 8926 fps=360 q=-0.0 size=N/A time=00:06:12.28 bitrate=N/A speed=  15x    frame= 9121 fps=361 q=-0.0 size=N/A time=00:06:20.42 bitrate=N/A speed=  15x    frame= 9325 fps=361 q=-0.0 size=N/A time=00:06:28.93 bitrate=N/A speed=15.1x    frame= 9524 fps=362 q=-0.0 size=N/A time=00:06:37.23 bitrate=N/A speed=15.1x    frame= 9720 fps=362 q=-0.0 size=N/A time=00:06:45.40 bitrate=N/A speed=15.1x    frame= 9924 fps=363 q=-0.0 size=N/A time=00:06:53.91 bitrate=N/A speed=15.1x    frame=10120 fps=363 q=-0.0 size=N/A time=00:07:02.08 bitrate=N/A speed=15.1x    frame=10319 fps=364 q=-0.0 size=N/A time=00:07:10.38 bitrate=N/A speed=15.2x    frame=10523 fps=364 q=-0.0 size=N/A time=00:07:18.89 bitrate=N/A speed=15.2x    frame=10720 fps=364 q=-0.0 size=N/A time=00:07:27.11 bitrate=N/A speed=15.2x    frame=10917 fps=365 q=-0.0 size=N/A time=00:07:35.32 bitrate=N/A speed=15.2x    frame=11122 fps=365 q=-0.0 size=N/A time=00:07:43.88 bitrate=N/A speed=15.2x    frame=11316 fps=365 q=-0.0 size=N/A time=00:07:51.97 bitrate=N/A speed=15.2x    frame=11513 fps=366 q=-0.0 size=N/A time=00:08:00.18 bitrate=N/A speed=15.3x    frame=11717 fps=366 q=-0.0 size=N/A time=00:08:08.69 bitrate=N/A speed=15.3x    frame=11918 fps=367 q=-0.0 size=N/A time=00:08:17.07 bitrate=N/A speed=15.3x    frame=12127 fps=367 q=-0.0 size=N/A time=00:08:25.79 bitrate=N/A speed=15.3x    frame=12319 fps=367 q=-0.0 size=N/A time=00:08:33.80 bitrate=N/A speed=15.3x    frame=12522 fps=368 q=-0.0 size=N/A time=00:08:42.27 bitrate=N/A speed=15.3x    frame=12731 fps=368 q=-0.0 size=N/A time=00:08:50.98 bitrate=N/A speed=15.4x    frame=12932 fps=368 q=-0.0 size=N/A time=00:08:59.37 bitrate=N/A speed=15.4x    frame=13118 fps=368 q=-0.0 size=N/A time=00:09:07.12 bitrate=N/A speed=15.4x    frame=13321 fps=369 q=-0.0 size=N/A time=00:09:15.59 bitrate=N/A speed=15.4x    frame=13507 fps=369 q=-0.0 size=N/A time=00:09:23.35 bitrate=N/A speed=15.4x    frame=13712 fps=369 q=-0.0 size=N/A time=00:09:31.90 bitrate=N/A speed=15.4x    frame=13899 fps=369 q=-0.0 size=N/A time=00:09:39.70 bitrate=N/A speed=15.4x    frame=14078 fps=369 q=-0.0 size=N/A time=00:09:47.16 bitrate=N/A speed=15.4x    frame=14260 fps=368 q=-0.0 size=N/A time=00:09:54.76 bitrate=N/A speed=15.4x    frame=14466 fps=369 q=-0.0 size=N/A time=00:10:03.35 bitrate=N/A speed=15.4x    frame=14657 fps=369 q=-0.0 size=N/A time=00:10:11.31 bitrate=N/A speed=15.4x    frame=14853 fps=369 q=-0.0 size=N/A time=00:10:19.49 bitrate=N/A speed=15.4x    frame=15048 fps=369 q=-0.0 size=N/A time=00:10:27.62 bitrate=N/A speed=15.4x    frame=15213 fps=369 q=-0.0 size=N/A time=00:10:34.50 bitrate=N/A speed=15.4x    frame=15400 fps=369 q=-0.0 size=N/A time=00:10:42.30 bitrate=N/A speed=15.4x    frame=15608 fps=369 q=-0.0 size=N/A time=00:10:50.98 bitrate=N/A speed=15.4x    frame=15802 fps=369 q=-0.0 size=N/A time=00:10:59.07 bitrate=N/A speed=15.4x    frame=16004 fps=369 q=-0.0 size=N/A time=00:11:07.50 bitrate=N/A speed=15.4x    frame=16209 fps=370 q=-0.0 size=N/A time=00:11:16.05 bitrate=N/A speed=15.4x    frame=16410 fps=370 q=-0.0 size=N/A time=00:11:24.43 bitrate=N/A speed=15.4x    frame=16592 fps=370 q=-0.0 size=N/A time=00:11:32.02 bitrate=N/A speed=15.4x    frame=16800 fps=370 q=-0.0 size=N/A time=00:11:40.70 bitrate=N/A speed=15.4x    frame=17006 fps=370 q=-0.0 size=N/A time=00:11:49.29 bitrate=N/A speed=15.4x    frame=17205 fps=370 q=-0.0 size=N/A time=00:11:57.59 bitrate=N/A speed=15.5x    frame=17412 fps=371 q=-0.0 size=N/A time=00:12:06.22 bitrate=N/A speed=15.5x    frame=17607 fps=371 q=-0.0 size=N/A time=00:12:14.35 bitrate=N/A speed=15.5x    frame=17796 fps=371 q=-0.0 size=N/A time=00:12:22.24 bitrate=N/A speed=15.5x    frame=17999 fps=371 q=-0.0 size=N/A time=00:12:30.70 bitrate=N/A speed=15.5x    frame=18199 fps=371 q=-0.0 size=N/A time=00:12:39.04 bitrate=N/A speed=15.5x    frame=18389 fps=371 q=-0.0 size=N/A time=00:12:46.97 bitrate=N/A speed=15.5x    frame=18595 fps=372 q=-0.0 size=N/A time=00:12:55.56 bitrate=N/A speed=15.5x    frame=18798 fps=372 q=-0.0 size=N/A time=00:13:04.03 bitrate=N/A speed=15.5x    frame=19005 fps=372 q=-0.0 size=N/A time=00:13:12.66 bitrate=N/A speed=15.5x    frame=19214 fps=372 q=-0.0 size=N/A time=00:13:21.38 bitrate=N/A speed=15.5x    frame=19403 fps=372 q=-0.0 size=N/A time=00:13:29.26 bitrate=N/A speed=15.5x    frame=19612 fps=373 q=-0.0 size=N/A time=00:13:37.98 bitrate=N/A speed=15.5x    frame=19812 fps=373 q=-0.0 size=N/A time=00:13:46.32 bitrate=N/A speed=15.5x    frame=20012 fps=373 q=-0.0 size=N/A time=00:13:54.66 bitrate=N/A speed=15.6x    frame=20217 fps=373 q=-0.0 size=N/A time=00:14:03.21 bitrate=N/A speed=15.6x    frame=20411 fps=373 q=-0.0 size=N/A time=00:14:11.30 bitrate=N/A speed=15.6x    frame=20598 fps=373 q=-0.0 size=N/A time=00:14:19.10 bitrate=N/A speed=15.6x    frame=20790 fps=373 q=-0.0 size=N/A time=00:14:27.11 bitrate=N/A speed=15.6x    frame=20989 fps=373 q=-0.0 size=N/A time=00:14:35.41 bitrate=N/A speed=15.6x    frame=21190 fps=373 q=-0.0 size=N/A time=00:14:43.79 bitrate=N/A speed=15.6x    frame=21397 fps=374 q=-0.0 size=N/A time=00:14:52.43 bitrate=N/A speed=15.6x    frame=21592 fps=374 q=-0.0 size=N/A time=00:15:00.56 bitrate=N/A speed=15.6x    frame=21787 fps=374 q=-0.0 size=N/A time=00:15:08.69 bitrate=N/A speed=15.6x    frame=21998 fps=374 q=-0.0 size=N/A time=00:15:17.49 bitrate=N/A speed=15.6x    frame=22190 fps=374 q=-0.0 size=N/A time=00:15:25.50 bitrate=N/A speed=15.6x    frame=22396 fps=374 q=-0.0 size=N/A time=00:15:34.09 bitrate=N/A speed=15.6x    frame=22602 fps=374 q=-0.0 size=N/A time=00:15:42.69 bitrate=N/A speed=15.6x    frame=22795 fps=374 q=-0.0 size=N/A time=00:15:50.74 bitrate=N/A speed=15.6x    frame=22993 fps=375 q=-0.0 size=N/A time=00:15:58.99 bitrate=N/A speed=15.6x    frame=23200 fps=375 q=-0.0 size=N/A time=00:16:07.63 bitrate=N/A speed=15.6x    frame=23402 fps=375 q=-0.0 size=N/A time=00:16:16.05 bitrate=N/A speed=15.6x    frame=23608 fps=375 q=-0.0 size=N/A time=00:16:24.65 bitrate=N/A speed=15.6x    frame=23816 fps=375 q=-0.0 size=N/A time=00:16:33.32 bitrate=N/A speed=15.7x    frame=24015 fps=375 q=-0.0 size=N/A time=00:16:41.62 bitrate=N/A speed=15.7x    frame=24209 fps=375 q=-0.0 size=N/A time=00:16:49.71 bitrate=N/A speed=15.7x    frame=24415 fps=376 q=-0.0 size=N/A time=00:16:58.30 bitrate=N/A speed=15.7x    frame=24622 fps=376 q=-0.0 size=N/A time=00:17:06.94 bitrate=N/A speed=15.7x    frame=24817 fps=376 q=-0.0 size=N/A time=00:17:15.07 bitrate=N/A speed=15.7x    frame=25016 fps=376 q=-0.0 size=N/A time=00:17:23.37 bitrate=N/A speed=15.7x    frame=25219 fps=376 q=-0.0 size=N/A time=00:17:31.84 bitrate=N/A speed=15.7x    frame=25417 fps=376 q=-0.0 size=N/A time=00:17:40.10 bitrate=N/A speed=15.7x    frame=25621 fps=376 q=-0.0 size=N/A time=00:17:48.60 bitrate=N/A speed=15.7x    frame=25819 fps=376 q=-0.0 size=N/A time=00:17:56.86 bitrate=N/A speed=15.7x    frame=26015 fps=376 q=-0.0 size=N/A time=00:18:05.04 bitrate=N/A speed=15.7x    frame=26229 fps=377 q=-0.0 size=N/A time=00:18:13.96 bitrate=N/A speed=15.7x    frame=26433 fps=377 q=-0.0 size=N/A time=00:18:22.47 bitrate=N/A speed=15.7x    frame=26639 fps=377 q=-0.0 size=N/A time=00:18:31.06 bitrate=N/A speed=15.7x    frame=26837 fps=377 q=-0.0 size=N/A time=00:18:39.32 bitrate=N/A speed=15.7x    frame=27030 fps=377 q=-0.0 size=N/A time=00:18:47.37 bitrate=N/A speed=15.7x    frame=27213 fps=377 q=-0.0 size=N/A time=00:18:55.00 bitrate=N/A speed=15.7x    frame=27408 fps=377 q=-0.0 size=N/A time=00:19:03.14 bitrate=N/A speed=15.7x    frame=27592 fps=377 q=-0.0 size=N/A time=00:19:10.81 bitrate=N/A speed=15.7x    frame=27781 fps=377 q=-0.0 size=N/A time=00:19:18.69 bitrate=N/A speed=15.7x    frame=27968 fps=376 q=-0.0 size=N/A time=00:19:26.49 bitrate=N/A speed=15.7x    frame=28162 fps=376 q=-0.0 size=N/A time=00:19:34.59 bitrate=N/A speed=15.7x    frame=28364 fps=377 q=-0.0 size=N/A time=00:19:43.01 bitrate=N/A speed=15.7x    frame=28552 fps=376 q=-0.0 size=N/A time=00:19:50.85 bitrate=N/A speed=15.7x    frame=28738 fps=376 q=-0.0 size=N/A time=00:19:58.61 bitrate=N/A speed=15.7x    frame=28919 fps=376 q=-0.0 size=N/A time=00:20:06.16 bitrate=N/A speed=15.7x    frame=29089 fps=376 q=-0.0 size=N/A time=00:20:13.25 bitrate=N/A speed=15.7x    frame=29268 fps=376 q=-0.0 size=N/A time=00:20:20.71 bitrate=N/A speed=15.7x    frame=29447 fps=375 q=-0.0 size=N/A time=00:20:28.18 bitrate=N/A speed=15.7x    frame=29626 fps=375 q=-0.0 size=N/A time=00:20:35.65 bitrate=N/A speed=15.7x    frame=29802 fps=375 q=-0.0 size=N/A time=00:20:42.99 bitrate=N/A speed=15.6x    frame=29982 fps=375 q=-0.0 size=N/A time=00:20:50.49 bitrate=N/A speed=15.6x    frame=30157 fps=375 q=-0.0 size=N/A time=00:20:57.79 bitrate=N/A speed=15.6x    frame=30350 fps=375 q=-0.0 size=N/A time=00:21:05.84 bitrate=N/A speed=15.6x    frame=30543 fps=375 q=-0.0 size=N/A time=00:21:13.89 bitrate=N/A speed=15.6x    frame=30731 fps=375 q=-0.0 size=N/A time=00:21:21.73 bitrate=N/A speed=15.6x    frame=30942 fps=375 q=-0.0 size=N/A time=00:21:30.53 bitrate=N/A speed=15.6x    frame=31136 fps=375 q=-0.0 size=N/A time=00:21:38.63 bitrate=N/A speed=15.6x    frame=31334 fps=375 q=-0.0 size=N/A time=00:21:46.88 bitrate=N/A speed=15.6x    frame=31523 fps=375 q=-0.0 size=N/A time=00:21:54.77 bitrate=N/A speed=15.6x    frame=31721 fps=375 q=-0.0 size=N/A time=00:22:03.03 bitrate=N/A speed=15.6x    frame=31902 fps=375 q=-0.0 size=N/A time=00:22:10.57 bitrate=N/A speed=15.6x    frame=32086 fps=375 q=-0.0 size=N/A time=00:22:18.25 bitrate=N/A speed=15.6x    frame=32272 fps=375 q=-0.0 size=N/A time=00:22:26.01 bitrate=N/A speed=15.6x    frame=32479 fps=375 q=-0.0 size=N/A time=00:22:34.64 bitrate=N/A speed=15.6x    frame=32647 fps=374 q=-0.0 size=N/A time=00:22:41.65 bitrate=N/A speed=15.6x    frame=32805 fps=374 q=-0.0 size=N/A time=00:22:48.24 bitrate=N/A speed=15.6x    frame=32973 fps=374 q=-0.0 size=N/A time=00:22:55.24 bitrate=N/A speed=15.6x    frame=33162 fps=374 q=-0.0 size=N/A time=00:23:03.13 bitrate=N/A speed=15.6x    frame=33348 fps=374 q=-0.0 size=N/A time=00:23:10.88 bitrate=N/A speed=15.6x    frame=33516 fps=373 q=-0.0 size=N/A time=00:23:17.89 bitrate=N/A speed=15.6x    frame=33663 fps=373 q=-0.0 size=N/A time=00:23:24.02 bitrate=N/A speed=15.5x    frame=33805 fps=372 q=-0.0 size=N/A time=00:23:29.95 bitrate=N/A speed=15.5x    frame=33943 fps=372 q=-0.0 size=N/A time=00:23:35.70 bitrate=N/A speed=15.5x    frame=34112 fps=371 q=-0.0 size=N/A time=00:23:42.75 bitrate=N/A speed=15.5x    frame=34263 fps=371 q=-0.0 size=N/A time=00:23:49.05 bitrate=N/A speed=15.5x    frame=34387 fps=370 q=-0.0 size=N/A time=00:23:54.22 bitrate=N/A speed=15.4x    frame=34551 fps=370 q=-0.0 size=N/A time=00:24:01.06 bitrate=N/A speed=15.4x    [Parsed_psnr_16 @ 0000023af056fd80] PSNR y:48.782529 u:50.311084 v:50.360861 average:49.241232 min:37.922154 max:inf
[out#0/null @ 0000023ae3408a00] video:14903KiB audio:271276KiB subtitle:0KiB other streams:0KiB global headers:0KiB muxing overhead: unknown
frame=34683 fps=370 q=-0.0 Lsize=N/A time=00:24:06.57 bitrate=N/A speed=15.4x    
